# xmcd
#
# Track frame offsets:
#  150
#  16690
#  34602
#  47476
#  60733
#  70352
#  83026
#  95732
#  109726
#  122082
#  138184
#  150329
#  169781
#  181579
#  194772
#
# Disc length: 2765 seconds
#
# Revision: 1
# Processed by: cddbd v1.5.1PL2 Copyright (c) Steve Scherf et al.
# Submitted via: Collectorz.com_Music_Collector 6.11
#
DISCID=bc0acb0f
DTITLE=Rodney LeJeune and The Texas Playboys - Rodney Lejeune and The Texas Playboys
DYEAR=2006
DGENRE=Blues -  Blues Cajun
TTITLE0=Jai Passe De Vant Ta Porte
TTITLE1=World In A Jug
TTITLE2=Musicians Waltz
TTITLE3=The Waltz Of The Past
TTITLE4=Allons A Lafayette
TTITLE5=Cette La J'aime
TTITLE6=Reno Waltz
TTITLE7=I'm Back At The Dance Again Tonight
TTITLE8=La Valse De Grande Chemin
TTITLE9=I Made A Big Mistake
TTITLE10=La Valse Alida
TTITLE11=Memories In My Heart
TTITLE12=Donnez Moi Mon Chapeau
TTITLE13=I'd Like To Know
TTITLE14=Jole Blon
EXTD=
EXTT0=
EXTT1=
EXTT2=
EXTT3=
EXTT4=
EXTT5=
EXTT6=
EXTT7=
EXTT8=
EXTT9=
EXTT10=
EXTT11=
EXTT12=
EXTT13=
EXTT14=
PLAYORDER=
